<mxfile host="app.diagrams.net" agent="Mozilla/5.0 (Windows NT 10.0; Win64; x64) AppleWebKit/537.36 (KHTML, like Gecko) Chrome/129.0.0.0 Safari/537.36" version="24.7.16">
  <diagram name="PÃ¡gina-1" id="AI5tc7pXIFEl4RvNH8P-">
    <mxGraphModel dx="2574" dy="2386" grid="1" gridSize="10" guides="1" tooltips="1" connect="1" arrows="1" fold="1" page="1" pageScale="1" pageWidth="900" pageHeight="1600" math="0" shadow="0">
      <root>
        <mxCell id="0" />
        <mxCell id="1" parent="0" />
        <mxCell id="ubzYqP0RcwB1AIwgjuww-81" value="" style="shape=table;startSize=0;container=1;collapsible=0;childLayout=tableLayout;" parent="1" vertex="1">
          <mxGeometry x="-110" y="-390" width="1560" height="40" as="geometry" />
        </mxCell>
        <mxCell id="ubzYqP0RcwB1AIwgjuww-82" value="" style="shape=tableRow;horizontal=0;startSize=0;swimlaneHead=0;swimlaneBody=0;strokeColor=inherit;top=0;left=0;bottom=0;right=0;collapsible=0;dropTarget=0;fillColor=none;points=[[0,0.5],[1,0.5]];portConstraint=eastwest;" parent="ubzYqP0RcwB1AIwgjuww-81" vertex="1">
          <mxGeometry width="1560" height="40" as="geometry" />
        </mxCell>
        <mxCell id="ubzYqP0RcwB1AIwgjuww-160" value="P" style="shape=partialRectangle;html=1;whiteSpace=wrap;connectable=0;strokeColor=inherit;overflow=hidden;fillColor=none;top=0;left=0;bottom=0;right=0;pointerEvents=1;" parent="ubzYqP0RcwB1AIwgjuww-82" vertex="1">
          <mxGeometry width="60" height="40" as="geometry">
            <mxRectangle width="60" height="40" as="alternateBounds" />
          </mxGeometry>
        </mxCell>
        <mxCell id="ubzYqP0RcwB1AIwgjuww-157" value="A" style="shape=partialRectangle;html=1;whiteSpace=wrap;connectable=0;strokeColor=inherit;overflow=hidden;fillColor=none;top=0;left=0;bottom=0;right=0;pointerEvents=1;" parent="ubzYqP0RcwB1AIwgjuww-82" vertex="1">
          <mxGeometry x="60" width="60" height="40" as="geometry">
            <mxRectangle width="60" height="40" as="alternateBounds" />
          </mxGeometry>
        </mxCell>
        <mxCell id="ubzYqP0RcwB1AIwgjuww-154" value="B" style="shape=partialRectangle;html=1;whiteSpace=wrap;connectable=0;strokeColor=inherit;overflow=hidden;fillColor=none;top=0;left=0;bottom=0;right=0;pointerEvents=1;" parent="ubzYqP0RcwB1AIwgjuww-82" vertex="1">
          <mxGeometry x="120" width="60" height="40" as="geometry">
            <mxRectangle width="60" height="40" as="alternateBounds" />
          </mxGeometry>
        </mxCell>
        <mxCell id="ubzYqP0RcwB1AIwgjuww-151" value="L" style="shape=partialRectangle;html=1;whiteSpace=wrap;connectable=0;strokeColor=inherit;overflow=hidden;fillColor=none;top=0;left=0;bottom=0;right=0;pointerEvents=1;" parent="ubzYqP0RcwB1AIwgjuww-82" vertex="1">
          <mxGeometry x="180" width="60" height="40" as="geometry">
            <mxRectangle width="60" height="40" as="alternateBounds" />
          </mxGeometry>
        </mxCell>
        <mxCell id="ubzYqP0RcwB1AIwgjuww-148" value="O" style="shape=partialRectangle;html=1;whiteSpace=wrap;connectable=0;strokeColor=inherit;overflow=hidden;fillColor=none;top=0;left=0;bottom=0;right=0;pointerEvents=1;" parent="ubzYqP0RcwB1AIwgjuww-82" vertex="1">
          <mxGeometry x="240" width="60" height="40" as="geometry">
            <mxRectangle width="60" height="40" as="alternateBounds" />
          </mxGeometry>
        </mxCell>
        <mxCell id="ubzYqP0RcwB1AIwgjuww-145" value="P" style="shape=partialRectangle;html=1;whiteSpace=wrap;connectable=0;strokeColor=inherit;overflow=hidden;fillColor=none;top=0;left=0;bottom=0;right=0;pointerEvents=1;" parent="ubzYqP0RcwB1AIwgjuww-82" vertex="1">
          <mxGeometry x="300" width="60" height="40" as="geometry">
            <mxRectangle width="60" height="40" as="alternateBounds" />
          </mxGeometry>
        </mxCell>
        <mxCell id="ubzYqP0RcwB1AIwgjuww-142" value="A" style="shape=partialRectangle;html=1;whiteSpace=wrap;connectable=0;strokeColor=inherit;overflow=hidden;fillColor=none;top=0;left=0;bottom=0;right=0;pointerEvents=1;" parent="ubzYqP0RcwB1AIwgjuww-82" vertex="1">
          <mxGeometry x="360" width="60" height="40" as="geometry">
            <mxRectangle width="60" height="40" as="alternateBounds" />
          </mxGeometry>
        </mxCell>
        <mxCell id="ubzYqP0RcwB1AIwgjuww-83" value="B" style="shape=partialRectangle;html=1;whiteSpace=wrap;connectable=0;strokeColor=inherit;overflow=hidden;fillColor=none;top=0;left=0;bottom=0;right=0;pointerEvents=1;" parent="ubzYqP0RcwB1AIwgjuww-82" vertex="1">
          <mxGeometry x="420" width="60" height="40" as="geometry">
            <mxRectangle width="60" height="40" as="alternateBounds" />
          </mxGeometry>
        </mxCell>
        <mxCell id="ubzYqP0RcwB1AIwgjuww-84" value="L" style="shape=partialRectangle;html=1;whiteSpace=wrap;connectable=0;strokeColor=inherit;overflow=hidden;fillColor=none;top=0;left=0;bottom=0;right=0;pointerEvents=1;" parent="ubzYqP0RcwB1AIwgjuww-82" vertex="1">
          <mxGeometry x="480" width="60" height="40" as="geometry">
            <mxRectangle width="60" height="40" as="alternateBounds" />
          </mxGeometry>
        </mxCell>
        <mxCell id="ubzYqP0RcwB1AIwgjuww-85" value="I" style="shape=partialRectangle;html=1;whiteSpace=wrap;connectable=0;strokeColor=inherit;overflow=hidden;fillColor=none;top=0;left=0;bottom=0;right=0;pointerEvents=1;" parent="ubzYqP0RcwB1AIwgjuww-82" vertex="1">
          <mxGeometry x="540" width="60" height="40" as="geometry">
            <mxRectangle width="60" height="40" as="alternateBounds" />
          </mxGeometry>
        </mxCell>
        <mxCell id="ubzYqP0RcwB1AIwgjuww-86" value="T" style="shape=partialRectangle;html=1;whiteSpace=wrap;connectable=0;strokeColor=inherit;overflow=hidden;fillColor=none;top=0;left=0;bottom=0;right=0;pointerEvents=1;" parent="ubzYqP0RcwB1AIwgjuww-82" vertex="1">
          <mxGeometry x="600" width="60" height="40" as="geometry">
            <mxRectangle width="60" height="40" as="alternateBounds" />
          </mxGeometry>
        </mxCell>
        <mxCell id="ubzYqP0RcwB1AIwgjuww-87" value="O" style="shape=partialRectangle;html=1;whiteSpace=wrap;connectable=0;strokeColor=inherit;overflow=hidden;fillColor=none;top=0;left=0;bottom=0;right=0;pointerEvents=1;" parent="ubzYqP0RcwB1AIwgjuww-82" vertex="1">
          <mxGeometry x="660" width="60" height="40" as="geometry">
            <mxRectangle width="60" height="40" as="alternateBounds" />
          </mxGeometry>
        </mxCell>
        <mxCell id="ubzYqP0RcwB1AIwgjuww-88" value="C" style="shape=partialRectangle;html=1;whiteSpace=wrap;connectable=0;strokeColor=inherit;overflow=hidden;fillColor=none;top=0;left=0;bottom=0;right=0;pointerEvents=1;" parent="ubzYqP0RcwB1AIwgjuww-82" vertex="1">
          <mxGeometry x="720" width="60" height="40" as="geometry">
            <mxRectangle width="60" height="40" as="alternateBounds" />
          </mxGeometry>
        </mxCell>
        <mxCell id="ubzYqP0RcwB1AIwgjuww-89" value="L" style="shape=partialRectangle;html=1;whiteSpace=wrap;connectable=0;strokeColor=inherit;overflow=hidden;fillColor=none;top=0;left=0;bottom=0;right=0;pointerEvents=1;" parent="ubzYqP0RcwB1AIwgjuww-82" vertex="1">
          <mxGeometry x="780" width="60" height="40" as="geometry">
            <mxRectangle width="60" height="40" as="alternateBounds" />
          </mxGeometry>
        </mxCell>
        <mxCell id="ubzYqP0RcwB1AIwgjuww-90" value="A" style="shape=partialRectangle;html=1;whiteSpace=wrap;connectable=0;strokeColor=inherit;overflow=hidden;fillColor=none;top=0;left=0;bottom=0;right=0;pointerEvents=1;" parent="ubzYqP0RcwB1AIwgjuww-82" vertex="1">
          <mxGeometry x="840" width="60" height="40" as="geometry">
            <mxRectangle width="60" height="40" as="alternateBounds" />
          </mxGeometry>
        </mxCell>
        <mxCell id="ubzYqP0RcwB1AIwgjuww-91" value="V" style="shape=partialRectangle;html=1;whiteSpace=wrap;connectable=0;strokeColor=inherit;overflow=hidden;fillColor=none;top=0;left=0;bottom=0;right=0;pointerEvents=1;" parent="ubzYqP0RcwB1AIwgjuww-82" vertex="1">
          <mxGeometry x="900" width="60" height="40" as="geometry">
            <mxRectangle width="60" height="40" as="alternateBounds" />
          </mxGeometry>
        </mxCell>
        <mxCell id="ubzYqP0RcwB1AIwgjuww-92" value="O" style="shape=partialRectangle;html=1;whiteSpace=wrap;connectable=0;strokeColor=inherit;overflow=hidden;fillColor=none;top=0;left=0;bottom=0;right=0;pointerEvents=1;" parent="ubzYqP0RcwB1AIwgjuww-82" vertex="1">
          <mxGeometry x="960" width="60" height="40" as="geometry">
            <mxRectangle width="60" height="40" as="alternateBounds" />
          </mxGeometry>
        </mxCell>
        <mxCell id="ubzYqP0RcwB1AIwgjuww-93" value="U" style="shape=partialRectangle;html=1;whiteSpace=wrap;connectable=0;strokeColor=inherit;overflow=hidden;fillColor=none;top=0;left=0;bottom=0;right=0;pointerEvents=1;" parent="ubzYqP0RcwB1AIwgjuww-82" vertex="1">
          <mxGeometry x="1020" width="60" height="40" as="geometry">
            <mxRectangle width="60" height="40" as="alternateBounds" />
          </mxGeometry>
        </mxCell>
        <mxCell id="ubzYqP0RcwB1AIwgjuww-94" value="N" style="shape=partialRectangle;html=1;whiteSpace=wrap;connectable=0;strokeColor=inherit;overflow=hidden;fillColor=none;top=0;left=0;bottom=0;right=0;pointerEvents=1;" parent="ubzYqP0RcwB1AIwgjuww-82" vertex="1">
          <mxGeometry x="1080" width="60" height="40" as="geometry">
            <mxRectangle width="60" height="40" as="alternateBounds" />
          </mxGeometry>
        </mxCell>
        <mxCell id="ubzYqP0RcwB1AIwgjuww-95" value="C" style="shape=partialRectangle;html=1;whiteSpace=wrap;connectable=0;strokeColor=inherit;overflow=hidden;fillColor=none;top=0;left=0;bottom=0;right=0;pointerEvents=1;" parent="ubzYqP0RcwB1AIwgjuww-82" vertex="1">
          <mxGeometry x="1140" width="60" height="40" as="geometry">
            <mxRectangle width="60" height="40" as="alternateBounds" />
          </mxGeometry>
        </mxCell>
        <mxCell id="ubzYqP0RcwB1AIwgjuww-96" value="L" style="shape=partialRectangle;html=1;whiteSpace=wrap;connectable=0;strokeColor=inherit;overflow=hidden;fillColor=none;top=0;left=0;bottom=0;right=0;pointerEvents=1;" parent="ubzYqP0RcwB1AIwgjuww-82" vertex="1">
          <mxGeometry x="1200" width="60" height="40" as="geometry">
            <mxRectangle width="60" height="40" as="alternateBounds" />
          </mxGeometry>
        </mxCell>
        <mxCell id="ubzYqP0RcwB1AIwgjuww-97" value="A" style="shape=partialRectangle;html=1;whiteSpace=wrap;connectable=0;strokeColor=inherit;overflow=hidden;fillColor=none;top=0;left=0;bottom=0;right=0;pointerEvents=1;" parent="ubzYqP0RcwB1AIwgjuww-82" vertex="1">
          <mxGeometry x="1260" width="60" height="40" as="geometry">
            <mxRectangle width="60" height="40" as="alternateBounds" />
          </mxGeometry>
        </mxCell>
        <mxCell id="ubzYqP0RcwB1AIwgjuww-98" value="V" style="shape=partialRectangle;html=1;whiteSpace=wrap;connectable=0;strokeColor=inherit;overflow=hidden;fillColor=none;top=0;left=0;bottom=0;right=0;pointerEvents=1;" parent="ubzYqP0RcwB1AIwgjuww-82" vertex="1">
          <mxGeometry x="1320" width="60" height="40" as="geometry">
            <mxRectangle width="60" height="40" as="alternateBounds" />
          </mxGeometry>
        </mxCell>
        <mxCell id="ubzYqP0RcwB1AIwgjuww-99" value="I" style="shape=partialRectangle;html=1;whiteSpace=wrap;connectable=0;strokeColor=inherit;overflow=hidden;fillColor=none;top=0;left=0;bottom=0;right=0;pointerEvents=1;" parent="ubzYqP0RcwB1AIwgjuww-82" vertex="1">
          <mxGeometry x="1380" width="60" height="40" as="geometry">
            <mxRectangle width="60" height="40" as="alternateBounds" />
          </mxGeometry>
        </mxCell>
        <mxCell id="ubzYqP0RcwB1AIwgjuww-100" value="T" style="shape=partialRectangle;html=1;whiteSpace=wrap;connectable=0;strokeColor=inherit;overflow=hidden;fillColor=none;top=0;left=0;bottom=0;right=0;pointerEvents=1;" parent="ubzYqP0RcwB1AIwgjuww-82" vertex="1">
          <mxGeometry x="1440" width="60" height="40" as="geometry">
            <mxRectangle width="60" height="40" as="alternateBounds" />
          </mxGeometry>
        </mxCell>
        <mxCell id="ubzYqP0RcwB1AIwgjuww-101" value="O" style="shape=partialRectangle;html=1;whiteSpace=wrap;connectable=0;strokeColor=inherit;overflow=hidden;fillColor=none;top=0;left=0;bottom=0;right=0;pointerEvents=1;" parent="ubzYqP0RcwB1AIwgjuww-82" vertex="1">
          <mxGeometry x="1500" width="60" height="40" as="geometry">
            <mxRectangle width="60" height="40" as="alternateBounds" />
          </mxGeometry>
        </mxCell>
        <mxCell id="ubzYqP0RcwB1AIwgjuww-169" value="" style="endArrow=classic;html=1;rounded=0;entryX=0;entryY=-0.05;entryDx=0;entryDy=0;entryPerimeter=0;" parent="1" target="ubzYqP0RcwB1AIwgjuww-82" edge="1">
          <mxGeometry width="50" height="50" relative="1" as="geometry">
            <mxPoint x="-110" y="-430" as="sourcePoint" />
            <mxPoint x="136" y="-385" as="targetPoint" />
          </mxGeometry>
        </mxCell>
        <mxCell id="ubzYqP0RcwB1AIwgjuww-174" value="" style="endArrow=classic;html=1;rounded=0;entryX=0.281;entryY=-0.025;entryDx=0;entryDy=0;entryPerimeter=0;" parent="1" target="ubzYqP0RcwB1AIwgjuww-82" edge="1">
          <mxGeometry width="50" height="50" relative="1" as="geometry">
            <mxPoint x="328" y="-440" as="sourcePoint" />
            <mxPoint x="490" y="-390" as="targetPoint" />
          </mxGeometry>
        </mxCell>
        <mxCell id="iw-aWJZN2cw1PuK3OVRT-2" value="Window" style="text;html=1;align=center;verticalAlign=middle;whiteSpace=wrap;rounded=0;" vertex="1" parent="1">
          <mxGeometry x="-10" y="-460" width="60" height="30" as="geometry" />
        </mxCell>
        <mxCell id="iw-aWJZN2cw1PuK3OVRT-7" value="" style="shape=table;startSize=0;container=1;collapsible=0;childLayout=tableLayout;" vertex="1" parent="1">
          <mxGeometry x="-200" y="430" width="1380" height="40" as="geometry" />
        </mxCell>
        <mxCell id="iw-aWJZN2cw1PuK3OVRT-8" value="" style="shape=tableRow;horizontal=0;startSize=0;swimlaneHead=0;swimlaneBody=0;strokeColor=inherit;top=0;left=0;bottom=0;right=0;collapsible=0;dropTarget=0;fillColor=none;points=[[0,0.5],[1,0.5]];portConstraint=eastwest;" vertex="1" parent="iw-aWJZN2cw1PuK3OVRT-7">
          <mxGeometry width="1380" height="40" as="geometry" />
        </mxCell>
        <mxCell id="iw-aWJZN2cw1PuK3OVRT-9" value="P" style="shape=partialRectangle;html=1;whiteSpace=wrap;connectable=0;strokeColor=inherit;overflow=hidden;fillColor=none;top=0;left=0;bottom=0;right=0;pointerEvents=1;" vertex="1" parent="iw-aWJZN2cw1PuK3OVRT-8">
          <mxGeometry width="60" height="40" as="geometry">
            <mxRectangle width="60" height="40" as="alternateBounds" />
          </mxGeometry>
        </mxCell>
        <mxCell id="iw-aWJZN2cw1PuK3OVRT-10" value="A" style="shape=partialRectangle;html=1;whiteSpace=wrap;connectable=0;strokeColor=inherit;overflow=hidden;fillColor=none;top=0;left=0;bottom=0;right=0;pointerEvents=1;" vertex="1" parent="iw-aWJZN2cw1PuK3OVRT-8">
          <mxGeometry x="60" width="60" height="40" as="geometry">
            <mxRectangle width="60" height="40" as="alternateBounds" />
          </mxGeometry>
        </mxCell>
        <mxCell id="iw-aWJZN2cw1PuK3OVRT-11" value="B" style="shape=partialRectangle;html=1;whiteSpace=wrap;connectable=0;strokeColor=inherit;overflow=hidden;fillColor=none;top=0;left=0;bottom=0;right=0;pointerEvents=1;" vertex="1" parent="iw-aWJZN2cw1PuK3OVRT-8">
          <mxGeometry x="120" width="60" height="40" as="geometry">
            <mxRectangle width="60" height="40" as="alternateBounds" />
          </mxGeometry>
        </mxCell>
        <mxCell id="iw-aWJZN2cw1PuK3OVRT-12" value="L" style="shape=partialRectangle;html=1;whiteSpace=wrap;connectable=0;strokeColor=inherit;overflow=hidden;fillColor=none;top=0;left=0;bottom=0;right=0;pointerEvents=1;" vertex="1" parent="iw-aWJZN2cw1PuK3OVRT-8">
          <mxGeometry x="180" width="60" height="40" as="geometry">
            <mxRectangle width="60" height="40" as="alternateBounds" />
          </mxGeometry>
        </mxCell>
        <mxCell id="iw-aWJZN2cw1PuK3OVRT-13" value="O" style="shape=partialRectangle;html=1;whiteSpace=wrap;connectable=0;strokeColor=inherit;overflow=hidden;fillColor=none;top=0;left=0;bottom=0;right=0;pointerEvents=1;" vertex="1" parent="iw-aWJZN2cw1PuK3OVRT-8">
          <mxGeometry x="240" width="60" height="40" as="geometry">
            <mxRectangle width="60" height="40" as="alternateBounds" />
          </mxGeometry>
        </mxCell>
        <mxCell id="iw-aWJZN2cw1PuK3OVRT-14" value="P" style="shape=partialRectangle;html=1;whiteSpace=wrap;connectable=0;strokeColor=inherit;overflow=hidden;fillColor=none;top=0;left=0;bottom=0;right=0;pointerEvents=1;" vertex="1" parent="iw-aWJZN2cw1PuK3OVRT-8">
          <mxGeometry x="300" width="60" height="40" as="geometry">
            <mxRectangle width="60" height="40" as="alternateBounds" />
          </mxGeometry>
        </mxCell>
        <mxCell id="iw-aWJZN2cw1PuK3OVRT-15" value="A" style="shape=partialRectangle;html=1;whiteSpace=wrap;connectable=0;strokeColor=inherit;overflow=hidden;fillColor=none;top=0;left=0;bottom=0;right=0;pointerEvents=1;" vertex="1" parent="iw-aWJZN2cw1PuK3OVRT-8">
          <mxGeometry x="360" width="60" height="40" as="geometry">
            <mxRectangle width="60" height="40" as="alternateBounds" />
          </mxGeometry>
        </mxCell>
        <mxCell id="iw-aWJZN2cw1PuK3OVRT-16" value="B" style="shape=partialRectangle;html=1;whiteSpace=wrap;connectable=0;strokeColor=inherit;overflow=hidden;fillColor=none;top=0;left=0;bottom=0;right=0;pointerEvents=1;" vertex="1" parent="iw-aWJZN2cw1PuK3OVRT-8">
          <mxGeometry x="420" width="60" height="40" as="geometry">
            <mxRectangle width="60" height="40" as="alternateBounds" />
          </mxGeometry>
        </mxCell>
        <mxCell id="iw-aWJZN2cw1PuK3OVRT-17" value="0+3+1" style="shape=partialRectangle;html=1;whiteSpace=wrap;connectable=0;strokeColor=inherit;overflow=hidden;fillColor=none;top=0;left=0;bottom=0;right=0;pointerEvents=1;" vertex="1" parent="iw-aWJZN2cw1PuK3OVRT-8">
          <mxGeometry x="480" width="60" height="40" as="geometry">
            <mxRectangle width="60" height="40" as="alternateBounds" />
          </mxGeometry>
        </mxCell>
        <mxCell id="iw-aWJZN2cw1PuK3OVRT-18" value="1+I" style="shape=partialRectangle;html=1;whiteSpace=wrap;connectable=0;strokeColor=inherit;overflow=hidden;fillColor=none;top=0;left=0;bottom=0;right=0;pointerEvents=1;" vertex="1" parent="iw-aWJZN2cw1PuK3OVRT-8">
          <mxGeometry x="540" width="60" height="40" as="geometry">
            <mxRectangle width="60" height="40" as="alternateBounds" />
          </mxGeometry>
        </mxCell>
        <mxCell id="iw-aWJZN2cw1PuK3OVRT-19" value="1+T" style="shape=partialRectangle;html=1;whiteSpace=wrap;connectable=0;strokeColor=inherit;overflow=hidden;fillColor=none;top=0;left=0;bottom=0;right=0;pointerEvents=1;" vertex="1" parent="iw-aWJZN2cw1PuK3OVRT-8">
          <mxGeometry x="600" width="60" height="40" as="geometry">
            <mxRectangle width="60" height="40" as="alternateBounds" />
          </mxGeometry>
        </mxCell>
        <mxCell id="iw-aWJZN2cw1PuK3OVRT-20" value="0+1+1" style="shape=partialRectangle;html=1;whiteSpace=wrap;connectable=0;strokeColor=inherit;overflow=hidden;fillColor=none;top=0;left=0;bottom=0;right=0;pointerEvents=1;" vertex="1" parent="iw-aWJZN2cw1PuK3OVRT-8">
          <mxGeometry x="660" width="60" height="40" as="geometry">
            <mxRectangle width="60" height="40" as="alternateBounds" />
          </mxGeometry>
        </mxCell>
        <mxCell id="iw-aWJZN2cw1PuK3OVRT-21" value="1+C" style="shape=partialRectangle;html=1;whiteSpace=wrap;connectable=0;strokeColor=inherit;overflow=hidden;fillColor=none;top=0;left=0;bottom=0;right=0;pointerEvents=1;" vertex="1" parent="iw-aWJZN2cw1PuK3OVRT-8">
          <mxGeometry x="720" width="60" height="40" as="geometry">
            <mxRectangle width="60" height="40" as="alternateBounds" />
          </mxGeometry>
        </mxCell>
        <mxCell id="iw-aWJZN2cw1PuK3OVRT-22" value="0+3+1" style="shape=partialRectangle;html=1;whiteSpace=wrap;connectable=0;strokeColor=inherit;overflow=hidden;fillColor=none;top=0;left=0;bottom=0;right=0;pointerEvents=1;" vertex="1" parent="iw-aWJZN2cw1PuK3OVRT-8">
          <mxGeometry x="780" width="60" height="40" as="geometry">
            <mxRectangle width="60" height="40" as="alternateBounds" />
          </mxGeometry>
        </mxCell>
        <mxCell id="iw-aWJZN2cw1PuK3OVRT-23" value="0+0+1" style="shape=partialRectangle;html=1;whiteSpace=wrap;connectable=0;strokeColor=inherit;overflow=hidden;fillColor=none;top=0;left=0;bottom=0;right=0;pointerEvents=1;" vertex="1" parent="iw-aWJZN2cw1PuK3OVRT-8">
          <mxGeometry x="840" width="60" height="40" as="geometry">
            <mxRectangle width="60" height="40" as="alternateBounds" />
          </mxGeometry>
        </mxCell>
        <mxCell id="iw-aWJZN2cw1PuK3OVRT-24" value="1+V" style="shape=partialRectangle;html=1;whiteSpace=wrap;connectable=0;strokeColor=inherit;overflow=hidden;fillColor=none;top=0;left=0;bottom=0;right=0;pointerEvents=1;" vertex="1" parent="iw-aWJZN2cw1PuK3OVRT-8">
          <mxGeometry x="900" width="60" height="40" as="geometry">
            <mxRectangle width="60" height="40" as="alternateBounds" />
          </mxGeometry>
        </mxCell>
        <mxCell id="iw-aWJZN2cw1PuK3OVRT-25" value="0+3+1" style="shape=partialRectangle;html=1;whiteSpace=wrap;connectable=0;strokeColor=inherit;overflow=hidden;fillColor=none;top=0;left=0;bottom=0;right=0;pointerEvents=1;" vertex="1" parent="iw-aWJZN2cw1PuK3OVRT-8">
          <mxGeometry x="960" width="60" height="40" as="geometry">
            <mxRectangle width="60" height="40" as="alternateBounds" />
          </mxGeometry>
        </mxCell>
        <mxCell id="iw-aWJZN2cw1PuK3OVRT-26" value="1+U" style="shape=partialRectangle;html=1;whiteSpace=wrap;connectable=0;strokeColor=inherit;overflow=hidden;fillColor=none;top=0;left=0;bottom=0;right=0;pointerEvents=1;" vertex="1" parent="iw-aWJZN2cw1PuK3OVRT-8">
          <mxGeometry x="1020" width="60" height="40" as="geometry">
            <mxRectangle width="60" height="40" as="alternateBounds" />
          </mxGeometry>
        </mxCell>
        <mxCell id="iw-aWJZN2cw1PuK3OVRT-27" value="1+N" style="shape=partialRectangle;html=1;whiteSpace=wrap;connectable=0;strokeColor=inherit;overflow=hidden;fillColor=none;top=0;left=0;bottom=0;right=0;pointerEvents=1;" vertex="1" parent="iw-aWJZN2cw1PuK3OVRT-8">
          <mxGeometry x="1080" width="60" height="40" as="geometry">
            <mxRectangle width="60" height="40" as="alternateBounds" />
          </mxGeometry>
        </mxCell>
        <mxCell id="iw-aWJZN2cw1PuK3OVRT-28" value="0+2+4" style="shape=partialRectangle;html=1;whiteSpace=wrap;connectable=0;strokeColor=inherit;overflow=hidden;fillColor=none;top=0;left=0;bottom=0;right=0;pointerEvents=1;" vertex="1" parent="iw-aWJZN2cw1PuK3OVRT-8">
          <mxGeometry x="1140" width="60" height="40" as="geometry">
            <mxRectangle width="60" height="40" as="alternateBounds" />
          </mxGeometry>
        </mxCell>
        <mxCell id="iw-aWJZN2cw1PuK3OVRT-29" value="1+I" style="shape=partialRectangle;html=1;whiteSpace=wrap;connectable=0;strokeColor=inherit;overflow=hidden;fillColor=none;top=0;left=0;bottom=0;right=0;pointerEvents=1;" vertex="1" parent="iw-aWJZN2cw1PuK3OVRT-8">
          <mxGeometry x="1200" width="60" height="40" as="geometry">
            <mxRectangle width="60" height="40" as="alternateBounds" />
          </mxGeometry>
        </mxCell>
        <mxCell id="iw-aWJZN2cw1PuK3OVRT-30" value="1+T" style="shape=partialRectangle;html=1;whiteSpace=wrap;connectable=0;strokeColor=inherit;overflow=hidden;fillColor=none;top=0;left=0;bottom=0;right=0;pointerEvents=1;" vertex="1" parent="iw-aWJZN2cw1PuK3OVRT-8">
          <mxGeometry x="1260" width="60" height="40" as="geometry">
            <mxRectangle width="60" height="40" as="alternateBounds" />
          </mxGeometry>
        </mxCell>
        <mxCell id="iw-aWJZN2cw1PuK3OVRT-31" value="1+O" style="shape=partialRectangle;html=1;whiteSpace=wrap;connectable=0;strokeColor=inherit;overflow=hidden;fillColor=none;top=0;left=0;bottom=0;right=0;pointerEvents=1;" vertex="1" parent="iw-aWJZN2cw1PuK3OVRT-8">
          <mxGeometry x="1320" width="60" height="40" as="geometry">
            <mxRectangle width="60" height="40" as="alternateBounds" />
          </mxGeometry>
        </mxCell>
        <mxCell id="iw-aWJZN2cw1PuK3OVRT-49" value="" style="endArrow=classic;html=1;rounded=0;entryX=0.056;entryY=0.925;entryDx=0;entryDy=0;entryPerimeter=0;fillColor=#FF6666;strokeColor=#FF6666;" edge="1" parent="1" target="ubzYqP0RcwB1AIwgjuww-82">
          <mxGeometry width="50" height="50" relative="1" as="geometry">
            <mxPoint x="-23" y="-290" as="sourcePoint" />
            <mxPoint y="-330" as="targetPoint" />
          </mxGeometry>
        </mxCell>
        <mxCell id="iw-aWJZN2cw1PuK3OVRT-54" value="" style="endArrow=classic;html=1;rounded=0;fillColor=#FF6666;strokeColor=#FF6666;" edge="1" parent="1">
          <mxGeometry width="50" height="50" relative="1" as="geometry">
            <mxPoint x="400" y="-290" as="sourcePoint" />
            <mxPoint x="400" y="-350" as="targetPoint" />
          </mxGeometry>
        </mxCell>
        <mxCell id="iw-aWJZN2cw1PuK3OVRT-55" value="" style="endArrow=classic;html=1;rounded=0;fillColor=#B5739D;strokeColor=#B5739D;" edge="1" parent="1">
          <mxGeometry width="50" height="50" relative="1" as="geometry">
            <mxPoint x="40" y="-240" as="sourcePoint" />
            <mxPoint x="40" y="-280" as="targetPoint" />
          </mxGeometry>
        </mxCell>
        <mxCell id="iw-aWJZN2cw1PuK3OVRT-57" value="" style="endArrow=classic;html=1;rounded=0;fillColor=#B5739D;strokeColor=#B5739D;" edge="1" parent="1">
          <mxGeometry width="50" height="50" relative="1" as="geometry">
            <mxPoint x="460" y="-240" as="sourcePoint" />
            <mxPoint x="460" y="-280" as="targetPoint" />
          </mxGeometry>
        </mxCell>
        <mxCell id="iw-aWJZN2cw1PuK3OVRT-58" value="" style="endArrow=classic;html=1;rounded=0;fillColor=#D5E8D4;strokeColor=#D5E8D4;" edge="1" parent="1">
          <mxGeometry width="50" height="50" relative="1" as="geometry">
            <mxPoint x="100" y="-200" as="sourcePoint" />
            <mxPoint x="100" y="-240" as="targetPoint" />
          </mxGeometry>
        </mxCell>
        <mxCell id="iw-aWJZN2cw1PuK3OVRT-59" value="" style="endArrow=classic;html=1;rounded=0;fillColor=#E6D0DE;strokeColor=#D5E8D4;" edge="1" parent="1">
          <mxGeometry width="50" height="50" relative="1" as="geometry">
            <mxPoint x="520" y="-200" as="sourcePoint" />
            <mxPoint x="520" y="-240" as="targetPoint" />
            <Array as="points">
              <mxPoint x="520" y="-200" />
            </Array>
          </mxGeometry>
        </mxCell>
        <mxCell id="iw-aWJZN2cw1PuK3OVRT-60" value="" style="endArrow=classic;html=1;rounded=0;strokeColor=#B9E0A5;" edge="1" parent="1">
          <mxGeometry width="50" height="50" relative="1" as="geometry">
            <mxPoint x="160" y="-160" as="sourcePoint" />
            <mxPoint x="160" y="-200" as="targetPoint" />
          </mxGeometry>
        </mxCell>
        <mxCell id="iw-aWJZN2cw1PuK3OVRT-61" value="" style="endArrow=classic;html=1;rounded=0;strokeColor=#B9E0A5;" edge="1" parent="1">
          <mxGeometry width="50" height="50" relative="1" as="geometry">
            <mxPoint x="580" y="-160" as="sourcePoint" />
            <mxPoint x="580" y="-200" as="targetPoint" />
          </mxGeometry>
        </mxCell>
        <mxCell id="iw-aWJZN2cw1PuK3OVRT-73" value="" style="endArrow=classic;html=1;rounded=0;strokeColor=#97D077;" edge="1" parent="1">
          <mxGeometry width="50" height="50" relative="1" as="geometry">
            <mxPoint x="230" y="-120" as="sourcePoint" />
            <mxPoint x="230" y="-160" as="targetPoint" />
          </mxGeometry>
        </mxCell>
        <mxCell id="iw-aWJZN2cw1PuK3OVRT-74" value="" style="endArrow=classic;html=1;rounded=0;strokeColor=#97D077;" edge="1" parent="1">
          <mxGeometry width="50" height="50" relative="1" as="geometry">
            <mxPoint x="640" y="-110" as="sourcePoint" />
            <mxPoint x="640" y="-150" as="targetPoint" />
          </mxGeometry>
        </mxCell>
        <mxCell id="iw-aWJZN2cw1PuK3OVRT-76" value="" style="endArrow=classic;html=1;rounded=0;strokeColor=#FFE599;" edge="1" parent="1">
          <mxGeometry width="50" height="50" relative="1" as="geometry">
            <mxPoint x="700" y="-80" as="sourcePoint" />
            <mxPoint x="700" y="-120" as="targetPoint" />
          </mxGeometry>
        </mxCell>
        <mxCell id="iw-aWJZN2cw1PuK3OVRT-77" value="" style="endArrow=classic;html=1;rounded=0;strokeColor=#FFE599;" edge="1" parent="1">
          <mxGeometry width="50" height="50" relative="1" as="geometry">
            <mxPoint x="280" y="-80" as="sourcePoint" />
            <mxPoint x="280" y="-120" as="targetPoint" />
          </mxGeometry>
        </mxCell>
        <mxCell id="iw-aWJZN2cw1PuK3OVRT-84" value="" style="endArrow=classic;html=1;rounded=0;strokeColor=#FFB570;" edge="1" parent="1">
          <mxGeometry width="50" height="50" relative="1" as="geometry">
            <mxPoint x="320" y="-40" as="sourcePoint" />
            <mxPoint x="320" y="-80" as="targetPoint" />
          </mxGeometry>
        </mxCell>
        <mxCell id="iw-aWJZN2cw1PuK3OVRT-85" value="" style="endArrow=classic;html=1;rounded=0;strokeColor=#FFB570;" edge="1" parent="1">
          <mxGeometry width="50" height="50" relative="1" as="geometry">
            <mxPoint x="760" y="-40" as="sourcePoint" />
            <mxPoint x="760" y="-80" as="targetPoint" />
          </mxGeometry>
        </mxCell>
        <mxCell id="iw-aWJZN2cw1PuK3OVRT-86" value="" style="endArrow=classic;html=1;rounded=0;strokeColor=#67AB9F;" edge="1" parent="1">
          <mxGeometry width="50" height="50" relative="1" as="geometry">
            <mxPoint x="400" as="sourcePoint" />
            <mxPoint x="400" y="-40" as="targetPoint" />
          </mxGeometry>
        </mxCell>
        <mxCell id="iw-aWJZN2cw1PuK3OVRT-87" value="" style="endArrow=classic;html=1;rounded=0;strokeColor=#67AB9F;" edge="1" parent="1">
          <mxGeometry width="50" height="50" relative="1" as="geometry">
            <mxPoint x="800" as="sourcePoint" />
            <mxPoint x="800" y="-40" as="targetPoint" />
          </mxGeometry>
        </mxCell>
        <mxCell id="iw-aWJZN2cw1PuK3OVRT-88" value="" style="endArrow=classic;html=1;rounded=0;strokeColor=#7EA6E0;" edge="1" parent="1">
          <mxGeometry width="50" height="50" relative="1" as="geometry">
            <mxPoint x="440" y="40" as="sourcePoint" />
            <mxPoint x="440" as="targetPoint" />
          </mxGeometry>
        </mxCell>
        <mxCell id="iw-aWJZN2cw1PuK3OVRT-89" value="" style="endArrow=classic;html=1;rounded=0;strokeColor=#7EA6E0;" edge="1" parent="1">
          <mxGeometry width="50" height="50" relative="1" as="geometry">
            <mxPoint x="870" y="40" as="sourcePoint" />
            <mxPoint x="870" as="targetPoint" />
          </mxGeometry>
        </mxCell>
        <mxCell id="iw-aWJZN2cw1PuK3OVRT-90" value="" style="endArrow=classic;html=1;rounded=0;strokeColor=#FF00FF;" edge="1" parent="1">
          <mxGeometry width="50" height="50" relative="1" as="geometry">
            <mxPoint x="510" y="80" as="sourcePoint" />
            <mxPoint x="510" y="40" as="targetPoint" />
          </mxGeometry>
        </mxCell>
        <mxCell id="iw-aWJZN2cw1PuK3OVRT-91" value="" style="endArrow=classic;html=1;rounded=0;strokeColor=#FF00FF;" edge="1" parent="1">
          <mxGeometry width="50" height="50" relative="1" as="geometry">
            <mxPoint x="920" y="80" as="sourcePoint" />
            <mxPoint x="920" y="40" as="targetPoint" />
          </mxGeometry>
        </mxCell>
        <mxCell id="iw-aWJZN2cw1PuK3OVRT-92" value="" style="endArrow=classic;html=1;rounded=0;strokeColor=#0000FF;" edge="1" parent="1">
          <mxGeometry width="50" height="50" relative="1" as="geometry">
            <mxPoint x="600" y="120" as="sourcePoint" />
            <mxPoint x="600" y="80" as="targetPoint" />
          </mxGeometry>
        </mxCell>
        <mxCell id="iw-aWJZN2cw1PuK3OVRT-93" value="" style="endArrow=classic;html=1;rounded=0;strokeColor=#0000FF;" edge="1" parent="1">
          <mxGeometry width="50" height="50" relative="1" as="geometry">
            <mxPoint x="980" y="120" as="sourcePoint" />
            <mxPoint x="980" y="80" as="targetPoint" />
          </mxGeometry>
        </mxCell>
        <mxCell id="iw-aWJZN2cw1PuK3OVRT-99" value="" style="endArrow=classic;html=1;rounded=0;strokeColor=#9933FF;" edge="1" parent="1">
          <mxGeometry width="50" height="50" relative="1" as="geometry">
            <mxPoint x="820" y="160" as="sourcePoint" />
            <mxPoint x="820" y="120" as="targetPoint" />
          </mxGeometry>
        </mxCell>
        <mxCell id="iw-aWJZN2cw1PuK3OVRT-100" value="" style="endArrow=classic;html=1;rounded=0;strokeColor=#9933FF;" edge="1" parent="1">
          <mxGeometry width="50" height="50" relative="1" as="geometry">
            <mxPoint x="1230" y="160" as="sourcePoint" />
            <mxPoint x="1230" y="120" as="targetPoint" />
            <Array as="points">
              <mxPoint x="1230" y="120" />
            </Array>
          </mxGeometry>
        </mxCell>
        <mxCell id="iw-aWJZN2cw1PuK3OVRT-116" value="" style="endArrow=classic;html=1;rounded=0;strokeColor=#CC0066;" edge="1" parent="1">
          <mxGeometry width="50" height="50" relative="1" as="geometry">
            <mxPoint x="900" y="190" as="sourcePoint" />
            <mxPoint x="900" y="150" as="targetPoint" />
          </mxGeometry>
        </mxCell>
        <mxCell id="iw-aWJZN2cw1PuK3OVRT-117" value="" style="endArrow=classic;html=1;rounded=0;strokeColor=#CC0066;" edge="1" parent="1">
          <mxGeometry width="50" height="50" relative="1" as="geometry">
            <mxPoint x="1300" y="200" as="sourcePoint" />
            <mxPoint x="1300" y="160" as="targetPoint" />
          </mxGeometry>
        </mxCell>
        <mxCell id="iw-aWJZN2cw1PuK3OVRT-118" value="" style="endArrow=classic;html=1;rounded=0;strokeColor=#990099;" edge="1" parent="1">
          <mxGeometry width="50" height="50" relative="1" as="geometry">
            <mxPoint x="940" y="240" as="sourcePoint" />
            <mxPoint x="940" y="200" as="targetPoint" />
          </mxGeometry>
        </mxCell>
        <mxCell id="iw-aWJZN2cw1PuK3OVRT-119" value="" style="endArrow=classic;html=1;rounded=0;strokeColor=#990099;" edge="1" parent="1">
          <mxGeometry width="50" height="50" relative="1" as="geometry">
            <mxPoint x="1349" y="240" as="sourcePoint" />
            <mxPoint x="1349" y="200" as="targetPoint" />
          </mxGeometry>
        </mxCell>
        <mxCell id="iw-aWJZN2cw1PuK3OVRT-120" value="" style="endArrow=classic;html=1;rounded=0;strokeColor=#660033;" edge="1" parent="1">
          <mxGeometry width="50" height="50" relative="1" as="geometry">
            <mxPoint x="980" y="280" as="sourcePoint" />
            <mxPoint x="980" y="240" as="targetPoint" />
          </mxGeometry>
        </mxCell>
        <mxCell id="iw-aWJZN2cw1PuK3OVRT-123" value="" style="endArrow=classic;html=1;rounded=0;strokeColor=#660033;" edge="1" parent="1">
          <mxGeometry width="50" height="50" relative="1" as="geometry">
            <mxPoint x="1400" y="280" as="sourcePoint" />
            <mxPoint x="1400" y="240" as="targetPoint" />
          </mxGeometry>
        </mxCell>
      </root>
    </mxGraphModel>
  </diagram>
</mxfile>
